<?xml version="1.0" standalone="no"?>
<!DOCTYPE svg PUBLIC "-//W3C//DTD SVG 20010904//EN"
 "http://www.w3.org/TR/2001/REC-SVG-20010904/DTD/svg10.dtd">
<svg version="1.0" xmlns="http://www.w3.org/2000/svg"
 width="500.000000pt" height="500.000000pt" viewBox="0 0 500.000000 500.000000"
 preserveAspectRatio="xMidYMid meet">
<metadata>
Created by potrace 1.14, written by Peter Selinger 2001-2017
</metadata>
<g transform="translate(0.000000,500.000000) scale(0.100000,-0.100000)"
fill="#000000" stroke="none">
<path d="M320 3590 l0 -1100 -160 0 -160 0 0 -625 0 -625 160 0 160 0 0 -155
0 -155 155 0 155 0 0 -155 0 -155 155 0 155 0 0 -150 0 -150 1565 0 1565 0 0
150 0 150 155 0 155 0 0 155 0 155 155 0 155 0 0 155 0 155 155 0 155 0 0 625
0 625 -155 0 -155 0 0 1100 0 1100 -470 0 -470 0 0 -165 0 -165 -155 0 -155 0
0 -155 0 -155 -935 0 -935 0 0 155 0 155 -160 0 -160 0 0 165 0 165 -465 0
-465 0 0 -1100z"/>
</g>
</svg>
